<svg id="Layer_2" data-name="Layer 2" xmlns="http://www.w3.org/2000/svg" viewBox="0 0 150 150"><defs><style>.cls-1{fill:#706f6f;}.cls-2{fill:#ececec;}</style></defs><title>icon</title><path class="cls-1" d="M74.92,38.86a36.14,36.14,0,1,1-36.06,36A36.16,36.16,0,0,1,74.92,38.86Z"/><path class="cls-2" d="M60.24,72.7H53.82c-.38,0-1,.19-1-.45s.56-.5,1-.5a22.29,22.29,0,0,1,3.37,0c3.76.57,6.54-1.28,9.15-3.57,1.2-1,2.27-2.13,4.06-1,.6.39,1.28-.38,1.89-.67a2.34,2.34,0,0,1,2.76.13,2.08,2.08,0,0,1,.54,2.67,1.36,1.36,0,0,0,0,.36,2.43,2.43,0,0,1,2.15,1c.42.53,1.06.24,1.59.27,1.68.08,2.34.6,2.37,2.25,0,.67.33.63.73.71a1.94,1.94,0,0,1,1.7,1.65,1.78,1.78,0,0,1-1.12,2c-.47.21-.45.45-.45.86,0,1.55-.66,2.24-2.18,2.27-.77,0-1.35-.12-1.27,1.1a1.67,1.67,0,0,1-1.93,1.78c-3.65-.31-7,.79-10.45,1.77A6.88,6.88,0,0,1,61.63,85,3.28,3.28,0,0,0,59,84.91c-1.25.41-2.52.75-3.78,1.13-.37.11-.81.23-1-.23s.3-.67.72-.79c1.61-.47,3.23-.93,4.84-1.42a2.11,2.11,0,0,1,1.61.21,7.59,7.59,0,0,0,5.86.37c2.73-.82,5.49-1.54,8.24-2.29.66-.18,1.39-.39,1.21-1.24-.21-1-1.06-.7-1.71-.54-1.32.33-2.62.73-3.94,1.07-.46.12-1.12.52-1.34-.15s.55-.7,1-.83c2.29-.65,4.58-1.27,6.87-1.9.18,0,.37-.09.55-.15.64-.2,1.35-.43,1.1-1.31s-1.06-.63-1.66-.48c-1.85.48-3.69,1-5.54,1.53-.63.17-1.27.31-1.89.52-.41.13-.81.13-.93-.31s.31-.59.68-.7L78.4,75c.22-.07.46-.09.68-.16.57-.19,1.11-.47.9-1.18s-.8-.82-1.47-.63l-7.7,2.17a7.62,7.62,0,0,1-.82.22c-.46.08-1.11.56-1.31-.19s.6-.7,1-.83q3-.84,6-1.63c.66-.18,1.38-.38,1.18-1.25s-1.07-.71-1.73-.53c-3.2.85-6.39,1.74-9.59,2.61-.43.12-1,.49-1.21-.12s.52-.76,1-.84c1.9-.34,3-1.81,4.33-3a1,1,0,0,0,0-1.63,1,1,0,0,0-1.51,0c-2.46,2.66-6.17,3.79-8.3,6.85a5,5,0,0,1-3.38,2c-1,.19-2,.57-3,.84-.5.13-1.25.65-1.46-.06s.74-.73,1.25-.92a12,12,0,0,1,2-.61A7.08,7.08,0,0,0,60.24,72.7Zm9.65-1.62a11.81,11.81,0,0,0,4.51-2,1,1,0,0,0-.12-1.67c-.72-.54-3.14.41-3.22,1.33A4.27,4.27,0,0,1,69.89,71.08Zm11.6,5.73c.78,0,1.53,0,1.55-.89,0-1-.82-.93-1.53-1S80,75.23,80,75.9C80,76.74,80.8,76.93,81.49,76.81Zm-3.9,2.89c1,0,2,0,3,0a.82.82,0,0,0,.87-.75.77.77,0,0,0-.33-.86c-.34-.2-.82-.3-1,0C79.48,79,78.45,79,77.59,79.7Z"/><path class="cls-2" d="M84.52,79c0-2.48,0-5,0-7.44a3.11,3.11,0,0,1,2.55-3.36c.09,0,.25,0,.27,0,.55-1.24,1.24-2.32,2.73-2.57a.22.22,0,0,0,0-.13c0-.18-.11-.51-.12-.5-1.65.3-.3-2.3-2.07-2.07a36.09,36.09,0,0,1-5.2,0c-.44,0-1.24.31-1.2-.5s.81-.43,1.27-.44c1.68,0,3.37,0,5.06,0,.67,0,1.25,0,1.11-.92,0-.09,0-.22,0-.28,1-1.31,2.37-.4,3.56-.62.6-.12,1.12.06,1.1.87,0,1,0,2,0,3,0,.42-.11.77-.58.81a.54.54,0,0,0-.57.63c0,.45.31.49.67.53a1.52,1.52,0,0,1,1.54,1.52c0,.55.3.64.77.76A3,3,0,0,1,98,71.55c0,5,0,10,0,15a3.06,3.06,0,0,1-3.31,3.36q-3.45,0-6.89,0a3.06,3.06,0,0,1-3.29-3.36C84.51,84.05,84.52,81.52,84.52,79ZM97,79.14c0-2.48,0-5,0-7.45,0-1.8-.76-2.52-2.59-2.54-2,0-4,0-6,0s-2.82.81-2.77,2.94c0,.67.18.91.87.88,1.22,0,2.44,0,3.65,0,.7,0,1,.19,1,.94q0,5.13,0,10.25c0,.73-.27,1-1,1-1.21,0-2.43,0-3.65,0-.35,0-.74-.11-.91.41A2.51,2.51,0,0,0,88,88.91q3.24,0,6.46,0c1.75,0,2.47-.72,2.49-2.48C97,84,97,81.57,97,79.14Zm-6.86,0V77.33c0-3.37,0-3.33-3.34-3.35-1.05,0-1.24.38-1.21,1.3.06,1.83,0,3.66,0,5.49,0,3.43,0,3.4,3.43,3.39.83,0,1.18-.15,1.12-1.07C90,81.78,90.1,80.47,90.1,79.16ZM90,62.45c-.32,1.06.09,1.34,1.16,1.35s1.38-.28,1.39-1.38-.37-1.29-1.35-1.28S89.67,61.3,90,62.45ZM91.31,67H89.49c-.41,0-.58.25-.58.63s.28.5.64.5c1.17,0,2.34,0,3.5,0,.31,0,.57-.06.59-.43s-.12-.66-.52-.68C92.52,67,91.91,67,91.31,67Z"/></svg>