<svg id="Layer_2" data-name="Layer 2" xmlns="http://www.w3.org/2000/svg" viewBox="0 0 150 150"><defs><style>.cls-1{fill:#706f6f;}</style></defs><title>gris</title><path class="cls-1" d="M95.89,52.87A15.27,15.27,0,0,1,96,50.51c.37-1.4.56-3.79,1.3-4a16.08,16.08,0,0,1,6.52,0c.57.1,1.18,1.88,1.23,2.91.16,3.39-.09,6.8.14,10.18a6.5,6.5,0,0,0,1.64,3.72c2.18,2.33,4.75,4.31,6.91,6.66.79.85,1.47,2.58,1.12,3.48s-2,1.52-3.21,1.73a34.89,34.89,0,0,1-5.46.07v3.92q0,15.42,0,30.86c0,4.39-.88,5.25-5.27,5.25H49.1c-4.52,0-5.34-.84-5.34-5.49q0-15.28,0-30.57v-4a39.23,39.23,0,0,1-5.68-.07c-1.1-.17-2.75-.85-3-1.64a4.21,4.21,0,0,1,1-3.51Q54.21,52.89,72.47,36c1.88-1.76,3.25-1.67,5.29.22,5.34,5,10.64,9.93,16,14.89C94.27,51.59,94.87,52,95.89,52.87ZM75,75.74c-1-1.14-1.68-2-2.44-2.91-3.06-3.53-7-4.48-11.34-3.37a10.36,10.36,0,0,0-7.95,8.41c-1.13,5.57,1.13,10.13,4.92,13.9,4.67,4.65,9.66,9,14.44,13.51,1.69,1.6,3.12,1.55,4.77,0,4.8-4.52,9.71-8.93,14.47-13.49a16.77,16.77,0,0,0,5-9.34,11.21,11.21,0,0,0-5.9-12.17,11,11,0,0,0-13.29,2.39C76.77,73.56,76,74.55,75,75.74Z"/></svg>