<svg id="Layer_2" data-name="Layer 2" xmlns="http://www.w3.org/2000/svg" viewBox="0 0 150 150"><defs><style>.cls-1{fill:#706f6f;}</style></defs><title>gris</title><path class="cls-1" d="M101.69,118.39H48.38c0-.12,0-.25,0-.37q0-8,0-16,0-10.34,0-20.68V78.62c0-.83.38-1.21,1.22-1.22h51.05a1,1,0,0,1,1.07,1.1c0,1.14,0,2.28,0,3.41v36.47Z"/><path class="cls-1" d="M32.83,82.28H29.71c.09-.57.15-1.12.26-1.66a12.13,12.13,0,0,1,4.7-7.38c1.15-.88,2.42-1.61,3.65-2.39,3.07-1.94,6.14-3.86,9.22-5.79L60,57.28a16.82,16.82,0,0,0,5.53-5.66c.76-1.25,1.43-2.56,2.11-3.86.82-1.6,1.08-1.79,3-2.15a23.49,23.49,0,0,1,7.53-.18c.8.11,1.58.3,2.38.43a1.52,1.52,0,0,1,1.1.74c.58,1,1.15,2,1.67,3A20.44,20.44,0,0,0,88,55.79a29.53,29.53,0,0,0,3.4,2.37c1,.66,2.07,1.29,3.11,1.94,2,1.26,4.07,2.52,6.09,3.79,2.54,1.58,5.08,3.18,7.62,4.77,2,1.23,3.91,2.43,5.86,3.67a12.66,12.66,0,0,1,6.18,9.51,2.11,2.11,0,0,1,0,.25,1.49,1.49,0,0,1,0,.17h-3c-.15-.52-.28-1.05-.46-1.56A9.18,9.18,0,0,0,113,76.11c-1.21-.81-2.5-1.49-3.76-2.22l-7.35-4.28L95.64,66l-8.18-4.76C85.31,60,83.16,58.74,81,57.52a28.79,28.79,0,0,0-3.19-1.6,7.39,7.39,0,0,0-6.28.29c-1.68.83-3.29,1.8-4.92,2.72s-3.16,1.83-4.74,2.75l-7.1,4.13L49.26,69,41.82,73.3c-1.59.93-3.22,1.8-4.76,2.8a9.06,9.06,0,0,0-4,5.12C33,81.56,32.92,81.91,32.83,82.28Z"/><path class="cls-1" d="M48.37,125.65V119.4h53.28v6.25Z"/><path class="cls-1" d="M102.7,78.79h1.35c2.38,0,4.75,0,7.13,0a2,2,0,0,0,1.91-1.14l.12-.19a8.33,8.33,0,0,1,2.24,2.6,4.5,4.5,0,0,1-1.93,1.45,2.84,2.84,0,0,1-.88.14c-3.24,0-6.48,0-9.73,0l-.21,0Z"/><path class="cls-1" d="M36.81,77.48a6.87,6.87,0,0,0,.44.63,1.76,1.76,0,0,0,1.37.69c2.75,0,5.51,0,8.26,0l.46,0v2.85h-.51c-3.22,0-6.44,0-9.65,0a3.06,3.06,0,0,1-1.39-.51,10.64,10.64,0,0,1-1.24-1A8.88,8.88,0,0,1,36.81,77.48Z"/><path class="cls-1" d="M75.69,39.86H74.38c0-.18,0-.33,0-.48,0-.77,0-1.53,0-2.3a1.37,1.37,0,0,1,.33-.9c.79-1.08,1.6-2.15,2.32-3.27a6.5,6.5,0,0,0,1-2.79,3.9,3.9,0,0,0-5-4.29,5.21,5.21,0,0,0-1.52.69,2.29,2.29,0,0,0-1.06,1.84.65.65,0,0,1-.72.68.68.68,0,0,1-.59-.81,3.67,3.67,0,0,1,2.14-3.14,5.45,5.45,0,0,1,6.2.5,5,5,0,0,1,1.84,4.65,9.22,9.22,0,0,1-1.7,4.2c-.54.81-1.17,1.57-1.74,2.37a1.06,1.06,0,0,0-.18.55c0,.67,0,1.35,0,2Z"/><path class="cls-1" d="M76.5,40.85,77,44.27H73.07l.47-3.42Z"/></svg>