<svg id="Layer_2" data-name="Layer 2" xmlns="http://www.w3.org/2000/svg" viewBox="0 0 150 150"><defs><style>.cls-1{fill:#706f6f;}</style></defs><title>gris</title><path class="cls-1" d="M44.1,60.07c3.72-.92,7.25-1.79,10.79-2.69a74.6,74.6,0,0,0,13.67-4.93c.63-.3,1.24-.63,1.86-.94a9.24,9.24,0,0,1,8.81,0,85.93,85.93,0,0,0,23.61,7.78,23.73,23.73,0,0,1,3.06,1.07c-.28,2-.53,3.92-.81,5.83-.51,3.41-1,6.82-1.56,10.22-.46,2.93-.76,5.89-1.45,8.75a9.89,9.89,0,0,1-2.18,4.15,40.91,40.91,0,0,1-9.84,8.56c-1.2.7-2.38,1.42-3.6,2.09a24,24,0,0,1-15.26,2.7,28,28,0,0,1-8.36-3,40.83,40.83,0,0,1-12-9.19,12.6,12.6,0,0,1-3.56-7.29c-.5-4.59-1.43-9.14-2.17-13.71-.43-2.63-.88-5.25-1.27-7.88A6,6,0,0,1,44.1,60.07ZM96.52,83.78c-2.07.59-4.13,1.25-6.22,1.73a82.15,82.15,0,0,1-11,2.23,52.3,52.3,0,0,1-21.36-2.61A12.36,12.36,0,0,0,52.74,84C60.88,90.43,89.48,90.39,96.52,83.78ZM96.83,65a10.16,10.16,0,0,0-2.22-.49,37.12,37.12,0,0,1-14.86-2.27,14.31,14.31,0,0,0-9.62,0A38,38,0,0,1,55,64.55a6.31,6.31,0,0,0-1.78.57,5.19,5.19,0,0,0,1.19.55c4.67.2,9.3.2,13.74-1.61a17.62,17.62,0,0,1,13.6,0c4.36,1.73,8.9,1.73,13.46,1.58A8.28,8.28,0,0,0,96.83,65Zm-.15,9.42-.06-.93a16.21,16.21,0,0,0-2.2.33,60.66,60.66,0,0,1-13.77,1.89,82.14,82.14,0,0,1-14.86-.34A86,86,0,0,1,54.4,73.58c-.42-.11-.95.2-1.42.32A85.87,85.87,0,0,0,96.68,74.46Z"/><path class="cls-1" d="M106.49,57.24l-.28,1.3c-.34.15-.54.32-.69.28-5.44-1.45-10.91-2.77-16.29-4.43a63.2,63.2,0,0,1-8.18-3.52c-3.88-1.84-7.88-2.26-11.67-.24-7,3.74-14.54,5.64-22.18,7.35-1.13.25-2.25.6-3.48.93l-.5-1.45c1.18-1.55,2.93-1.48,4.39-1.78,7.49-1.56,14.79-3.59,21.62-7.14a11.77,11.77,0,0,1,11.42.07c6.73,3.52,13.95,5.53,21.35,7a33.88,33.88,0,0,1,3.42.93A5,5,0,0,1,106.49,57.24Z"/><path class="cls-1" d="M103.2,85.93a6.6,6.6,0,0,1,1.94-1,26,26,0,0,0,8.62-3.1c3.61-1.92,6.14-4.66,6.53-9,.18-2.06.45-4.12.55-6.18A6.35,6.35,0,0,0,116,60c-1.34-.32-2.68-.66-4-1s-2.51-.49-4-.78l-.16-1.1c.36-.17.56-.34.71-.31a81.29,81.29,0,0,1,8.08,1.78c4.24,1.35,6.38,5.31,5.6,9.78a6.62,6.62,0,0,0-.16,1.47c.2,7.33-3.55,11.94-10.09,14.52-2.73,1.08-5.49,2.19-8.5,2.17Z"/><path class="cls-1" d="M41.79,56.87v1.21c-2.84.7-5.61,1.35-8.37,2.07S29.21,63,28.93,65.8a25.16,25.16,0,0,0,.92,9.12A10.57,10.57,0,0,0,35,81.24a24.17,24.17,0,0,0,9.4,3.6,2.33,2.33,0,0,1,2.14,1.62,6.44,6.44,0,0,1-1.75.12c-4.06-1-8-2.15-11.53-4.62A13.1,13.1,0,0,1,27.7,71.89a54.63,54.63,0,0,1,0-6.27c.06-3.05,1.31-5.4,4.29-6.5a53.87,53.87,0,0,1,5.69-1.7A41.2,41.2,0,0,1,41.79,56.87Z"/></svg>