<svg id="Layer_2" data-name="Layer 2" xmlns="http://www.w3.org/2000/svg" viewBox="0 0 150 150"><defs><style>.cls-1{fill:#706f6f;}.cls-2{fill:#ececec;}</style></defs><title>icon</title><path class="cls-1" d="M74.39,38.67a36.14,36.14,0,1,1-36.07,36A36.15,36.15,0,0,1,74.39,38.67Z"/><g id="OQEpGj"><path class="cls-2" d="M67.73,100H54.85c-.54,0-1.24.11-1.22-.69s.7-.68,1.25-.68c1.72,0,3.44,0,5.15,0,.72,0,1-.12,1-.94,0-2.81,0-5.62,0-8.43,0-.47.11-.85-.67-.88-3.1-.14-4.77-1.69-5.34-4.84a21,21,0,0,1-.21-2.1c0-.7.33-1.58-.91-1.7-.37,0-.3-.58-.3-.93,0-3.43,0-6.87,0-10.3a2.71,2.71,0,0,1,1.51-2.59,1.27,1.27,0,0,0,.83-1.44c0-.55-.2-1.33.69-1.32s.6.72.69,1.24c.07.37-.39,1,.45,1.07.62,0,1.19.16,1.57-.73.89-2.14,4.23-2.95,6.13-1.62a2.78,2.78,0,0,1,1.24,2.62,1.78,1.78,0,0,0,.62,1.41,8.2,8.2,0,0,0,8.11,3.13,9.21,9.21,0,0,1,2.1,0A2.62,2.62,0,0,1,80.1,72a1,1,0,0,0,1.22.73c.86,0,1.72,0,2.58,0a1.85,1.85,0,0,1,1.33.34c.79.76,1.44,1.7,2.78,1.42.25,0,.5.38.41.72a.68.68,0,0,1-.78.57,1.83,1.83,0,0,0-2,1,1.86,1.86,0,0,1-1.66.7c-3.39-.05-6.79.17-10.17-.12-.47,0-.52.24-.67.45a48.56,48.56,0,0,1-6,7,1.09,1.09,0,0,0-.38.91c0,2.78,0,5.55,0,8.32,0,.6.17.76.78.81a3.1,3.1,0,0,1,3,3c.07.77.38.85,1,.84,2.93,0,5.86,0,8.78,0H81c.5,0,1,0,1,.66s-.56.71-1.09.71ZM62.4,86.49c.64-.39,1.09-.69,1.56-.94a2.51,2.51,0,0,0,1.4-2.65,58.83,58.83,0,0,1,0-6.9c.16-2.23-.11-4.14-2.25-5.36-.43-.25-.69-.7-.24-1.17s.77-.17,1.12.13A37.8,37.8,0,0,1,67,72.33a5.68,5.68,0,0,0,5.5,2h.12c.55.07.9,0,.83-.73s.33-1,1-.93c1.09,0,2.18,0,3.27,0,.34,0,.92.27,1-.28s-.5-.64-.93-.72a4.93,4.93,0,0,0-.94,0c-1.87,0-3.74,0-5.62,0a1.92,1.92,0,0,1-1.47-.53q-1.8-1.67-3.69-3.25a1.82,1.82,0,0,1-.75-1.71,1.82,1.82,0,0,0-.46-1.74,3.27,3.27,0,0,0-3.13-.26,2,2,0,0,0-1.37,2q0,6.72,0,13.46a1.45,1.45,0,0,0,1.13,1.58c.85.16.92.67.91,1.35C62.39,83.76,62.4,85,62.4,86.49ZM59,72.65V68.79c0-2,0-2-1.94-1.93-1.51,0-2.05.54-2.06,2,0,2.22,0,4.44,0,6.66,0,3.16,0,3.14,3.22,3,.59,0,.82-.15.8-.78C59,76.08,59,74.37,59,72.65Zm6.35,13.7c-.9.52-1.64,1-2.44,1.38a.75.75,0,0,0-.48.81c0,3.13,0,6.25,0,9.37,0,.58.18.73.73.72,1.8,0,3.59,0,5.39,0,.72,0,.74-.35.64-.88-.21-1.09-1-1.63-2.47-1.59-1,0-1.39-.34-1.37-1.36C65.36,92,65.32,89.26,65.32,86.35ZM61,84.75c.06-1.19.2-2.38-1.18-3a1.67,1.67,0,0,1-.72-1.17.67.67,0,0,0-.79-.62c-2.41.09-2.19-.48-2.13,2.14a9.34,9.34,0,0,0,.33,2,3.67,3.67,0,0,0,2.38,2.81c1.75.58,2.11.33,2.11-1.48Zm5.75-11.1v9.51a50.42,50.42,0,0,0,6.08-7.43C70.61,75.67,68.33,76.17,66.78,73.65Zm12.85,2.41c1.36,0,2.72,0,4.09,0,.73,0,1.26-.25,1.26-1s-.53-1-1.19-1h-8.3c-1,0-.54.73-.61,1.17s-.11.91.65.88C76.9,76,78.26,76.06,79.63,76.06Z"/><path class="cls-2" d="M57.94,55.45a5.4,5.4,0,0,1,10.79-.13,5.4,5.4,0,1,1-10.79.13Zm5.37,4a4,4,0,1,0,0-8,4,4,0,0,0-4,4A4,4,0,0,0,63.31,59.41Z"/><path class="cls-2" d="M92.5,77.31c0,.29-.34.44-.77.42S91,77.48,91,77s.38-.66.8-.63S92.55,76.62,92.5,77.31Z"/><path class="cls-2" d="M95.5,77.75a.63.63,0,0,1-.64-.65c0-.47.3-.69.73-.72a.68.68,0,0,1,.81.64C96.43,77.48,96.13,77.72,95.5,77.75Z"/><path class="cls-2" d="M94.49,71a.73.73,0,0,1-.84.66c-.43,0-.75-.25-.71-.72s.38-.63.81-.62A.72.72,0,0,1,94.49,71Z"/><path class="cls-2" d="M95.64,72.34c.44,0,.77.26.76.71s-.34.67-.78.67a.67.67,0,0,1-.76-.69C94.87,72.57,95.21,72.37,95.64,72.34Z"/><path class="cls-2" d="M94.49,75a.72.72,0,0,1-.75.71.68.68,0,0,1-.79-.66c0-.48.26-.69.72-.71A.73.73,0,0,1,94.49,75Z"/><path class="cls-2" d="M96.42,75a.74.74,0,0,1-.77.71.69.69,0,0,1-.79-.68c0-.45.3-.68.76-.69A.72.72,0,0,1,96.42,75Z"/><path class="cls-2" d="M94.49,77a.72.72,0,0,1-.76.7c-.44,0-.77-.18-.79-.65s.31-.7.74-.71A.73.73,0,0,1,94.49,77Z"/><path class="cls-2" d="M95.62,79.77c-.43,0-.76-.24-.76-.69a.67.67,0,0,1,.77-.69.68.68,0,0,1,.77.68C96.4,79.52,96.08,79.75,95.62,79.77Z"/><path class="cls-2" d="M95.63,70.36c.46,0,.76.22.78.67s-.36.68-.78.68-.78-.22-.77-.68S95.18,70.36,95.63,70.36Z"/><path class="cls-2" d="M92.53,73a.66.66,0,0,1-.73.69c-.45,0-.76-.19-.78-.65s.29-.7.72-.72A.7.7,0,0,1,92.53,73Z"/><path class="cls-2" d="M94.49,79.05a.72.72,0,0,1-.76.71.68.68,0,0,1-.79-.66c0-.46.3-.69.74-.71A.74.74,0,0,1,94.49,79.05Z"/><path class="cls-2" d="M93.69,72.34c.48,0,.79.27.78.72a.67.67,0,0,1-.78.66c-.45,0-.75-.22-.74-.7S93.29,72.37,93.69,72.34Z"/><path class="cls-2" d="M90.61,75.07a.7.7,0,0,1-.8.67.67.67,0,0,1-.72-.73c0-.44.34-.65.8-.63A.67.67,0,0,1,90.61,75.07Z"/><path class="cls-2" d="M91.77,75.76c-.41-.06-.75-.21-.74-.7s.29-.68.74-.68.75.21.75.68S92.2,75.71,91.77,75.76Z"/></g></svg>