<svg id="Layer_2" data-name="Layer 2" xmlns="http://www.w3.org/2000/svg" viewBox="0 0 150 150"><defs><style>.cls-1{fill:#706f6f;}</style></defs><title>gris</title><path class="cls-1" d="M75,51.29h32.29a11.08,11.08,0,0,1,2,.12,4.47,4.47,0,0,1,3.61,3.69,7.58,7.58,0,0,1,.08,1.17q0,18.66,0,37.32c0,3.34-1.85,5.11-5.24,5.11-21.81,0-43.62,0-65.43,0A5.07,5.07,0,0,1,37,93.46Q37.19,75,37,56.63a5,5,0,0,1,5.36-5.38c10.87.11,21.75,0,32.63,0ZM57.73,89.34c2.51,0,5,0,7.52,0,2.9.05,3.94.4,4-4a7.92,7.92,0,0,0-4.92-7.8,14.65,14.65,0,0,0-12.76-.17c-3.42,1.51-5.57,4-5.16,8.08,0,.45,0,.9,0,1.34,0,2,.53,2.49,2.49,2.5C51.83,89.36,54.78,89.34,57.73,89.34ZM91,67.91h0c3.4,0,6.8,0,10.19,0a2.46,2.46,0,0,0,2.47-2.24A2.57,2.57,0,0,0,101.54,63a5.59,5.59,0,0,0-1,0H81.66a4.55,4.55,0,0,0-1.47.21,2.43,2.43,0,0,0-1.64,2.61,2.35,2.35,0,0,0,2.23,2.1c.44,0,.89,0,1.34,0C85.07,67.92,88,67.91,91,67.91Zm.19,4.62h-9a9.26,9.26,0,0,0-1.67.09,2.41,2.41,0,0,0-.31,4.64,6,6,0,0,0,1.8.22q9,0,18,0a7.35,7.35,0,0,0,1.82-.16,2.45,2.45,0,0,0,1.81-2.17,2.3,2.3,0,0,0-1.35-2.31,3.85,3.85,0,0,0-1.77-.31C97.4,72.51,94.28,72.53,91.16,72.53ZM91,87h2c2.67,0,5.35,0,8,0a2.57,2.57,0,0,0,2.63-2.48A2.63,2.63,0,0,0,101.17,82a7.85,7.85,0,0,0-.84,0H81.79a5.88,5.88,0,0,0-1.33.09,2.54,2.54,0,0,0-1.93,2.42,2.48,2.48,0,0,0,2.14,2.41A9.81,9.81,0,0,0,82,87Zm-27.4-20.4a5.88,5.88,0,1,0-5.83,5.88A6,6,0,0,0,63.63,66.57Z"/></svg>