<svg id="Layer_2" data-name="Layer 2" xmlns="http://www.w3.org/2000/svg" viewBox="0 0 150 150"><defs><style>.cls-1{fill:#706f6f;}</style></defs><title>gris</title><path class="cls-1" d="M75,30.43c6.64,0,13.28,0,19.92,0a3,3,0,0,1,3,3.43c-.57,3.59-1,7.2-1.51,10.8-.56,4-1.1,8-1.65,12-.48,3.48-1,7-1.46,10.43s-.95,7-1.44,10.49-1,7-1.45,10.44c-.4,2.93-.82,5.86-1.21,8.79a2.87,2.87,0,0,1-3,2.64H63.6a2.8,2.8,0,0,1-2.8-2.39c-.44-3-.85-6.11-1.27-9.16-.38-2.74-.77-5.47-1.15-8.21q-.6-4.4-1.21-8.79c-.45-3.27-.91-6.54-1.36-9.8s-.88-6.47-1.32-9.7c-.37-2.7-.76-5.4-1.13-8.1s-.75-5.44-1.12-8.16c-.08-.56-.18-1.13-.21-1.7a2.82,2.82,0,0,1,2.89-3ZM75,60a7.22,7.22,0,1,0-7.22-7.26A7.23,7.23,0,0,0,75,60ZM70.07,77.28H63.5c-.8,0-1.08.28-1.08,1.1,0,1.44,0,2.89,0,4.33,0,.94.27,1.2,1.22,1.2h6.44c3.21,3.48,6.69,3.47,9.82,0h6.57c.78,0,1.11-.33,1.12-1.1,0-1.5,0-3,0-4.5a.94.94,0,0,0-1.08-1c-1.8,0-3.6,0-5.4,0H79.89A6,6,0,0,0,70.07,77.28Zm13-30.46A12,12,0,0,0,84.62,45a17.29,17.29,0,0,0,1-2.43A5.79,5.79,0,0,0,81.4,45ZM85,54.18A5.74,5.74,0,0,0,89.64,53,6.05,6.05,0,0,0,85,51.84Zm.32,9.14a13.72,13.72,0,0,0-.82-2.23,14.91,14.91,0,0,0-1.62-2L81,60.85A6,6,0,0,0,85.27,63.32Zm-10.5,4.13A5.94,5.94,0,0,0,76,62.78H73.6A5.88,5.88,0,0,0,74.77,67.45Zm-5.83-22.7a5.92,5.92,0,0,0-4.24-2.46,13.47,13.47,0,0,0,.85,2.22,15.58,15.58,0,0,0,1.6,2Zm-.33,15.82-1.78-1.63a5.73,5.73,0,0,0-2.33,4A5.81,5.81,0,0,0,68.61,60.57ZM65,51.37H63.19c-1.16,0-2,.8-2.89,1.18A5.84,5.84,0,0,0,65,53.74Zm9-8.56H76.4a5.83,5.83,0,0,0-1.18-4.64A5.66,5.66,0,0,0,74.06,42.81Z"/><path class="cls-1" d="M75,119.59H65.22a2.7,2.7,0,0,1-3-3c0-3,0-6,0-9a2.8,2.8,0,0,1,2.95-3c6.56,0,13.13,0,19.7,0a2.62,2.62,0,0,1,2.83,2.84v9.16a2.67,2.67,0,0,1-2.9,2.9l-4.93,0H75Z"/><path class="cls-1" d="M75,84.24a3.66,3.66,0,1,1,3.67-3.67A3.65,3.65,0,0,1,75,84.24Z"/></svg>